<svg xmlns="http://www.w3.org/2000/svg" viewBox="0 0 810.2 564.4"><defs><style>.cls-1{fill:#fff;}</style></defs><g id="Layer_2" data-name="Layer 2"><g id="Layer_1-2" data-name="Layer 1"><path class="cls-1" d="M150,0c15,2,30.06,3.83,45,6,39.43,5.78,77.42,16.23,112.76,35.18,56.11,30.09,92.53,76.31,109.8,137.11,18.75,66.06,19.62,133,1.64,199.21-23.7,87.29-83.18,139.9-167.75,166.5-50.06,15.74-101.63,20.25-153.77,20.3-27.31,0-54.63.23-81.93-.19C10.5,564.06,5.26,561.44,0,560V336a81,81,0,0,1,8.87-1q46-.11,91.92,0c2.89,0,5.78.37,9.34.62V458.81c39.91,1.73,78.45-1.2,115.33-15.79,47-18.6,76.3-52.89,88.7-101.83,7-27.75,8.42-55.94,5.68-84.24-6.33-65.36-36.7-113.76-99.85-138-27.63-10.63-56.58-14.59-86.07-14.9-7.82-.08-15.64,0-24.36,0V229c-22.19,0-43.46.13-64.72,0-15-.12-29.89-.63-44.84-1V0Z"/><path class="cls-1" d="M563,0q49.8,113.1,99.59,226.21,73,165.6,146,331.17c.51,1.16.76,2.42,1.64,5.27H792.84c-24,0-48-.53-72,.27-9.37.32-12.81-4-15.75-11.49-10.71-27.19-22-54.15-32.49-81.42-2.49-6.48-5.78-8.29-12.42-8.24-41.67.29-83.34,0-125,.32-6.94.06-10-2.13-11.91-8.68-7.11-24.86-14.68-49.59-22.6-76.11h134C610.59,318.51,587.46,262,564.34,205.51l-3.54.08-64,156.47c-1.69-4.47-2.9-7.19-3.76-10C482,315.48,470.83,279,460.23,242.25c-1.21-4.18-.16-9.8,1.66-14Q510.58,116.81,559.74,5.54A28.79,28.79,0,0,0,561,0Z"/></g></g></svg>